<mxfile host="app.diagrams.net" agent="Mozilla/5.0 (Macintosh; Intel Mac OS X 10_15_7) AppleWebKit/537.36 (KHTML, like Gecko) Chrome/131.0.0.0 Safari/537.36" version="25.0.1">
  <diagram id="2f404044-711c-603c-8f00-f6bb4c023d3c" name="Page-1">
    <mxGraphModel dx="794" dy="1311" grid="1" gridSize="10" guides="1" tooltips="1" connect="1" arrows="1" fold="1" page="1" pageScale="1" pageWidth="1169" pageHeight="827" background="none" math="0" shadow="0">
      <root>
        <mxCell id="0" />
        <mxCell id="1" parent="0" />
        <mxCell id="21" value="" style="swimlane;shadow=0;strokeColor=#4277BB;fillColor=#ffffff;fontColor=none;align=right;startSize=0;collapsible=0;noLabel=1;strokeWidth=3;" parent="1" vertex="1">
          <mxGeometry x="190" y="-30" width="1040" height="730" as="geometry" />
        </mxCell>
        <mxCell id="23" style="edgeStyle=orthogonalEdgeStyle;rounded=0;html=1;labelBackgroundColor=#ffffff;jettySize=auto;orthogonalLoop=1;strokeColor=#EDC11C;fontColor=#000000;startArrow=classic;startFill=1;strokeWidth=2;endSize=4;startSize=4;" parent="21" source="2" target="3" edge="1">
          <mxGeometry relative="1" as="geometry" />
        </mxCell>
        <mxCell id="31" style="edgeStyle=orthogonalEdgeStyle;rounded=0;html=1;labelBackgroundColor=#ffffff;jettySize=auto;orthogonalLoop=1;strokeColor=#EDC11C;fontColor=#000000;startArrow=classic;strokeWidth=2;endSize=4;startSize=4;" parent="21" source="6" edge="1">
          <mxGeometry relative="1" as="geometry">
            <mxPoint x="520" y="211" as="targetPoint" />
          </mxGeometry>
        </mxCell>
        <mxCell id="32" style="edgeStyle=orthogonalEdgeStyle;rounded=0;html=1;entryX=0.75;entryY=0;labelBackgroundColor=#ffffff;jettySize=auto;orthogonalLoop=1;strokeColor=#EDC11C;fontColor=#000000;startArrow=classic;strokeWidth=2;endSize=4;startSize=4;" parent="21" source="6" target="5" edge="1">
          <mxGeometry relative="1" as="geometry">
            <Array as="points">
              <mxPoint x="243" y="95" />
            </Array>
          </mxGeometry>
        </mxCell>
        <mxCell id="27" style="edgeStyle=orthogonalEdgeStyle;rounded=0;html=1;labelBackgroundColor=#ffffff;jettySize=auto;orthogonalLoop=1;strokeColor=#4277BB;fontColor=#000000;strokeWidth=2;endSize=4;startSize=4;startArrow=classic;startFill=1;" parent="21" edge="1">
          <mxGeometry relative="1" as="geometry">
            <Array as="points">
              <mxPoint x="360" y="390" />
              <mxPoint x="690" y="390" />
            </Array>
            <mxPoint x="360" y="302.36067977499795" as="sourcePoint" />
            <mxPoint x="690" y="310" as="targetPoint" />
          </mxGeometry>
        </mxCell>
        <mxCell id="29" style="edgeStyle=orthogonalEdgeStyle;rounded=0;html=1;labelBackgroundColor=#ffffff;jettySize=auto;orthogonalLoop=1;strokeColor=#EDC11C;fontColor=#000000;startArrow=classic;strokeWidth=2;endSize=4;startSize=4;" parent="21" edge="1">
          <mxGeometry relative="1" as="geometry">
            <Array as="points">
              <mxPoint x="360" y="210" />
              <mxPoint x="690" y="210" />
            </Array>
            <mxPoint x="360" y="257.63932022500205" as="sourcePoint" />
            <mxPoint x="690" y="250" as="targetPoint" />
          </mxGeometry>
        </mxCell>
        <mxCell id="28" style="edgeStyle=orthogonalEdgeStyle;rounded=0;html=1;labelBackgroundColor=#ffffff;jettySize=auto;orthogonalLoop=1;strokeColor=#4277BB;fontColor=#000000;strokeWidth=2;endSize=4;startSize=4;startArrow=classic;startFill=1;" parent="21" source="8" target="9" edge="1">
          <mxGeometry relative="1" as="geometry">
            <Array as="points">
              <mxPoint x="470" y="390" />
              <mxPoint x="570" y="390" />
            </Array>
          </mxGeometry>
        </mxCell>
        <mxCell id="30" style="edgeStyle=orthogonalEdgeStyle;rounded=0;html=1;labelBackgroundColor=#ffffff;jettySize=auto;orthogonalLoop=1;strokeColor=#EDC11C;fontColor=#000000;startArrow=classic;strokeWidth=2;endSize=4;startSize=4;" parent="21" source="8" target="9" edge="1">
          <mxGeometry relative="1" as="geometry">
            <Array as="points">
              <mxPoint x="470" y="210" />
              <mxPoint x="570" y="210" />
            </Array>
          </mxGeometry>
        </mxCell>
        <mxCell id="33" style="edgeStyle=orthogonalEdgeStyle;rounded=0;html=1;labelBackgroundColor=#ffffff;jettySize=auto;orthogonalLoop=1;strokeColor=#EDC11C;fontColor=#000000;startArrow=classic;strokeWidth=2;endSize=4;startSize=4;exitX=0;exitY=0.5;exitDx=0;exitDy=0;" parent="21" source="16" target="15" edge="1">
          <mxGeometry relative="1" as="geometry">
            <mxPoint x="963" y="160" as="sourcePoint" />
          </mxGeometry>
        </mxCell>
        <mxCell id="37" style="edgeStyle=orthogonalEdgeStyle;rounded=0;html=1;labelBackgroundColor=#ffffff;jettySize=auto;orthogonalLoop=1;strokeColor=#4277BB;fontColor=#000000;strokeWidth=2;endSize=4;startSize=4;startArrow=classic;startFill=1;entryX=0.75;entryY=1;entryDx=0;entryDy=0;exitX=0.5;exitY=1;exitDx=0;exitDy=0;" parent="21" source="16" target="12" edge="1">
          <mxGeometry relative="1" as="geometry" />
        </mxCell>
        <mxCell id="62" style="edgeStyle=orthogonalEdgeStyle;rounded=0;html=1;labelBackgroundColor=#ffffff;startArrow=classic;startFill=1;startSize=4;endSize=4;jettySize=auto;orthogonalLoop=1;strokeColor=#EDC11C;strokeWidth=2;fontSize=12;fontColor=#4277BB;" parent="21" source="3" target="5" edge="1">
          <mxGeometry relative="1" as="geometry">
            <Array as="points">
              <mxPoint x="90" y="170" />
            </Array>
          </mxGeometry>
        </mxCell>
        <mxCell id="3" value="Online Trigger" style="aspect=fixed;perimeter=ellipsePerimeter;html=1;align=center;shadow=0;dashed=0;image;image=img/lib/ibm/applications/saas_applications.svg;strokeColor=#FF0000;fillColor=#FFFF66;gradientColor=none;fontColor=#4277BB;labelBackgroundColor=#ffffff;spacingTop=3;" parent="21" vertex="1">
          <mxGeometry x="60" y="190" width="60" height="60" as="geometry" />
        </mxCell>
        <mxCell id="5" value="GateWay" style="aspect=fixed;perimeter=ellipsePerimeter;html=1;align=center;shadow=0;dashed=0;image;image=img/lib/ibm/infrastructure/edge_services.svg;strokeColor=#FF0000;fillColor=#FFFF66;gradientColor=none;fontColor=#4277BB;labelBackgroundColor=#ffffff;spacingTop=3;" parent="21" vertex="1">
          <mxGeometry x="200" y="140" width="60" height="60" as="geometry" />
        </mxCell>
        <mxCell id="6" value="Recommend Engine" style="aspect=fixed;perimeter=ellipsePerimeter;html=1;align=center;shadow=0;dashed=0;image;image=img/lib/ibm/management/api_management.svg;strokeColor=#FF0000;fillColor=#FFFF66;gradientColor=none;fontColor=#4277BB;labelBackgroundColor=#ffffff;spacingTop=3;" parent="21" vertex="1">
          <mxGeometry x="490" y="65" width="60" height="60" as="geometry" />
        </mxCell>
        <mxCell id="8" value="Knowledge Graph" style="aspect=fixed;perimeter=ellipsePerimeter;html=1;align=center;shadow=0;dashed=0;image;image=img/lib/ibm/analytics/analytics.svg;strokeColor=#FF0000;fillColor=#FFFF66;gradientColor=none;fontColor=#4277BB;labelBackgroundColor=#ffffff;spacingTop=3;" parent="21" vertex="1">
          <mxGeometry x="440" y="250" width="60" height="60" as="geometry" />
        </mxCell>
        <mxCell id="9" value="Material Stroage" style="aspect=fixed;perimeter=ellipsePerimeter;html=1;align=center;shadow=0;dashed=0;image;image=img/lib/ibm/data/data_services.svg;strokeColor=#FF0000;fillColor=#FFFF66;gradientColor=none;fontColor=#4277BB;labelBackgroundColor=#ffffff;spacingTop=3;" parent="21" vertex="1">
          <mxGeometry x="540" y="250" width="60" height="60" as="geometry" />
        </mxCell>
        <mxCell id="WuAp777bnY0AX49LWSHj-78" style="edgeStyle=orthogonalEdgeStyle;rounded=0;orthogonalLoop=1;jettySize=auto;html=1;strokeWidth=2;endSize=4;startSize=4;strokeColor=#7EA6E0;" edge="1" parent="21" source="12">
          <mxGeometry relative="1" as="geometry">
            <mxPoint x="510" y="390" as="targetPoint" />
            <Array as="points">
              <mxPoint x="800" y="440" />
              <mxPoint x="511" y="440" />
            </Array>
          </mxGeometry>
        </mxCell>
        <mxCell id="12" value="Data Integration" style="aspect=fixed;perimeter=ellipsePerimeter;html=1;align=center;shadow=0;dashed=0;image;image=img/lib/ibm/data/device_registry.svg;strokeColor=#FF0000;fillColor=#FFFF66;gradientColor=none;fontColor=#4277BB;labelBackgroundColor=#ffffff;spacingTop=3;" parent="21" vertex="1">
          <mxGeometry x="795" y="320" width="60" height="60" as="geometry" />
        </mxCell>
        <mxCell id="15" value="Contents" style="aspect=fixed;perimeter=ellipsePerimeter;html=1;align=center;shadow=0;dashed=0;image;image=img/lib/ibm/applications/enterprise_applications.svg;strokeColor=#FF0000;fillColor=#FFFF66;gradientColor=none;fontColor=#4277BB;labelBackgroundColor=#ffffff;spacingTop=3;" parent="21" vertex="1">
          <mxGeometry x="840" y="70" width="60" height="60" as="geometry" />
        </mxCell>
        <mxCell id="16" value="Data Mine" style="aspect=fixed;perimeter=ellipsePerimeter;html=1;align=center;shadow=0;dashed=0;image;image=img/lib/ibm/data/enterprise_data.svg;strokeColor=#FF0000;fillColor=#FFFF66;gradientColor=none;fontColor=#4277BB;labelBackgroundColor=#ffffff;spacingTop=3;" parent="21" vertex="1">
          <mxGeometry x="900" y="260" width="60" height="60" as="geometry" />
        </mxCell>
        <mxCell id="17" value="User Profile" style="aspect=fixed;perimeter=ellipsePerimeter;html=1;align=center;shadow=0;dashed=0;image;image=img/lib/ibm/data/enterprise_user_directory.svg;strokeColor=#FF0000;fillColor=#FFFF66;gradientColor=none;fontColor=#4277BB;labelBackgroundColor=#ffffff;spacingTop=3;" parent="21" vertex="1">
          <mxGeometry x="900" y="490" width="60" height="60" as="geometry" />
        </mxCell>
        <mxCell id="39" value="" style="swimlane;shadow=0;labelBackgroundColor=#007FFF;strokeColor=#4277BB;fillColor=none;gradientColor=none;fontColor=#000000;align=right;collapsible=0;startSize=0;strokeWidth=3;" parent="21" vertex="1">
          <mxGeometry x="210" y="590" width="650" height="120" as="geometry" />
        </mxCell>
        <mxCell id="18" value="Authorization" style="aspect=fixed;perimeter=ellipsePerimeter;html=1;align=center;shadow=0;dashed=0;image;image=img/lib/ibm/blockchain/certificate_authority.svg;strokeColor=#FF0000;fillColor=#FFFF66;gradientColor=none;fontColor=#4277BB;labelBackgroundColor=#ffffff;spacingTop=3;" parent="39" vertex="1">
          <mxGeometry x="170" y="10" width="60" height="60" as="geometry" />
        </mxCell>
        <mxCell id="19" value="Information Uniform" style="aspect=fixed;perimeter=ellipsePerimeter;html=1;align=center;shadow=0;dashed=0;image;image=img/lib/ibm/management/information_governance.svg;strokeColor=#FF0000;fillColor=#FFFF66;gradientColor=none;fontColor=#4277BB;labelBackgroundColor=#ffffff;spacingTop=3;" parent="39" vertex="1">
          <mxGeometry x="330" y="10" width="60" height="60" as="geometry" />
        </mxCell>
        <mxCell id="20" value="System Management" style="aspect=fixed;perimeter=ellipsePerimeter;html=1;align=center;shadow=0;dashed=0;image;image=img/lib/ibm/management/cluster_management.svg;strokeColor=#FF0000;fillColor=#FFFF66;gradientColor=none;fontColor=#4277BB;labelBackgroundColor=#ffffff;spacingTop=3;" parent="39" vertex="1">
          <mxGeometry x="497" y="10" width="60" height="60" as="geometry" />
        </mxCell>
        <mxCell id="22" value="Front End PlatForm" style="text;html=1;align=left;verticalAlign=middle;fontColor=#4277BB;shadow=0;dashed=0;strokeColor=none;fillColor=none;labelBackgroundColor=none;fontStyle=1;fontSize=14;spacingLeft=5;" parent="21" vertex="1">
          <mxGeometry y="10" width="150" height="20" as="geometry" />
        </mxCell>
        <mxCell id="43" value="" style="line;strokeWidth=3;direction=south;html=1;shadow=0;labelBackgroundColor=none;fillColor=none;gradientColor=none;fontSize=12;fontColor=#4277BB;align=right;strokeColor=#4277BB;" parent="21" vertex="1">
          <mxGeometry x="225" width="10" height="130" as="geometry" />
        </mxCell>
        <mxCell id="44" value="" style="line;strokeWidth=3;direction=south;html=1;shadow=0;labelBackgroundColor=none;fillColor=none;gradientColor=none;fontSize=12;fontColor=#4277BB;align=right;strokeColor=#4277BB;" parent="21" vertex="1">
          <mxGeometry x="225" y="240" width="10" height="350" as="geometry" />
        </mxCell>
        <mxCell id="46" value="" style="line;strokeWidth=3;direction=south;html=1;shadow=0;labelBackgroundColor=none;fillColor=none;gradientColor=none;fontSize=12;fontColor=#4277BB;align=right;strokeColor=#4277BB;" parent="21" vertex="1">
          <mxGeometry x="820" y="420" width="10" height="170" as="geometry" />
        </mxCell>
        <mxCell id="47" value="" style="line;strokeWidth=3;direction=south;html=1;shadow=0;labelBackgroundColor=none;fillColor=none;gradientColor=none;fontSize=12;fontColor=#4277BB;align=right;strokeColor=#4277BB;" parent="21" vertex="1">
          <mxGeometry x="820" width="10" height="300" as="geometry" />
        </mxCell>
        <mxCell id="48" value="Recommend System BackEnd" style="text;html=1;align=left;verticalAlign=middle;fontColor=#4277BB;shadow=0;dashed=0;strokeColor=none;fillColor=none;labelBackgroundColor=none;fontStyle=1;fontSize=14;spacingLeft=5;" parent="21" vertex="1">
          <mxGeometry x="230" y="10" width="150" height="20" as="geometry" />
        </mxCell>
        <mxCell id="49" value="Data Repository" style="text;html=1;align=left;verticalAlign=middle;fontColor=#4277BB;shadow=0;dashed=0;strokeColor=none;fillColor=none;labelBackgroundColor=none;fontStyle=1;fontSize=14;spacingLeft=5;" parent="21" vertex="1">
          <mxGeometry x="825" y="10" width="185" height="20" as="geometry" />
        </mxCell>
        <mxCell id="50" value="Application component" style="rounded=0;html=1;shadow=0;labelBackgroundColor=none;strokeColor=none;strokeWidth=2;fillColor=#EBC01A;gradientColor=none;fontSize=12;fontColor=#4277BB;align=left;labelPosition=right;verticalLabelPosition=middle;verticalAlign=middle;spacingLeft=5;" parent="21" vertex="1">
          <mxGeometry x="20" y="580" width="20" height="10" as="geometry" />
        </mxCell>
        <mxCell id="51" value="Infrastructure services" style="rounded=0;html=1;shadow=0;labelBackgroundColor=none;strokeColor=none;strokeWidth=2;fillColor=#8DC642;gradientColor=none;fontSize=12;fontColor=#4277BB;align=left;labelPosition=right;verticalLabelPosition=middle;verticalAlign=middle;spacingLeft=5;" parent="21" vertex="1">
          <mxGeometry x="20" y="600" width="20" height="10" as="geometry" />
        </mxCell>
        <mxCell id="52" value="Management" style="rounded=0;html=1;shadow=0;labelBackgroundColor=none;strokeColor=none;strokeWidth=2;fillColor=#0DB39D;gradientColor=none;fontSize=12;fontColor=#4277BB;align=left;labelPosition=right;verticalLabelPosition=middle;verticalAlign=middle;spacingLeft=5;" parent="21" vertex="1">
          <mxGeometry x="20" y="620" width="20" height="10" as="geometry" />
        </mxCell>
        <mxCell id="53" value="Data store" style="rounded=0;html=1;shadow=0;labelBackgroundColor=none;strokeColor=none;strokeWidth=2;fillColor=#335D81;gradientColor=none;fontSize=12;fontColor=#4277BB;align=left;labelPosition=right;verticalLabelPosition=middle;verticalAlign=middle;spacingLeft=5;" parent="21" vertex="1">
          <mxGeometry x="20" y="640" width="20" height="10" as="geometry" />
        </mxCell>
        <mxCell id="54" value="Analytics" style="rounded=0;html=1;shadow=0;labelBackgroundColor=none;strokeColor=none;strokeWidth=2;fillColor=#744399;gradientColor=none;fontSize=12;fontColor=#4277BB;align=left;labelPosition=right;verticalLabelPosition=middle;verticalAlign=middle;spacingLeft=5;" parent="21" vertex="1">
          <mxGeometry x="20" y="660" width="20" height="10" as="geometry" />
        </mxCell>
        <mxCell id="55" value="Device capabilities" style="rounded=0;html=1;shadow=0;labelBackgroundColor=none;strokeColor=none;strokeWidth=2;fillColor=#A72870;gradientColor=none;fontSize=12;fontColor=#4277BB;align=left;labelPosition=right;verticalLabelPosition=middle;verticalAlign=middle;spacingLeft=5;" parent="21" vertex="1">
          <mxGeometry x="20" y="680" width="20" height="10" as="geometry" />
        </mxCell>
        <mxCell id="56" value="Security" style="rounded=0;html=1;shadow=0;labelBackgroundColor=none;strokeColor=none;strokeWidth=2;fillColor=#E52134;gradientColor=none;fontSize=12;fontColor=#4277BB;align=left;labelPosition=right;verticalLabelPosition=middle;verticalAlign=middle;spacingLeft=5;" parent="21" vertex="1">
          <mxGeometry x="20" y="700" width="20" height="10" as="geometry" />
        </mxCell>
        <mxCell id="59" value="LEGEND" style="text;html=1;align=left;verticalAlign=middle;fontColor=#4277BB;shadow=0;dashed=0;strokeColor=none;fillColor=none;labelBackgroundColor=none;fontStyle=1;fontSize=14;spacingLeft=0;" parent="21" vertex="1">
          <mxGeometry x="20" y="550" width="150" height="20" as="geometry" />
        </mxCell>
        <mxCell id="2" value="User Retrieve" style="aspect=fixed;perimeter=ellipsePerimeter;html=1;align=center;shadow=0;dashed=0;image;image=img/lib/ibm/users/user.svg;strokeColor=#FF0000;fillColor=#FFFF66;gradientColor=none;fontColor=#4277BB;labelBackgroundColor=#ffffff;fontSize=12;spacingTop=3;" parent="21" vertex="1">
          <mxGeometry x="60" y="71" width="60" height="60" as="geometry" />
        </mxCell>
        <mxCell id="WuAp777bnY0AX49LWSHj-65" value="Ranker" style="image;aspect=fixed;perimeter=ellipsePerimeter;html=1;align=center;shadow=0;dashed=0;fontColor=#4277BB;labelBackgroundColor=default;fontSize=12;spacingTop=3;image=img/lib/ibm/data/caches.svg;" vertex="1" parent="21">
          <mxGeometry x="660" y="250" width="60" height="60" as="geometry" />
        </mxCell>
        <mxCell id="WuAp777bnY0AX49LWSHj-68" value="Feature Storage" style="image;aspect=fixed;perimeter=ellipsePerimeter;html=1;align=center;shadow=0;dashed=0;fontColor=#4277BB;labelBackgroundColor=default;fontSize=12;spacingTop=3;image=img/lib/ibm/devops/build_test.svg;" vertex="1" parent="21">
          <mxGeometry x="330" y="250" width="60" height="60" as="geometry" />
        </mxCell>
        <mxCell id="WuAp777bnY0AX49LWSHj-71" style="edgeStyle=orthogonalEdgeStyle;rounded=0;orthogonalLoop=1;jettySize=auto;html=1;strokeWidth=2;endSize=4;startSize=4;strokeColor=#99FF99;" edge="1" parent="21" source="WuAp777bnY0AX49LWSHj-69">
          <mxGeometry relative="1" as="geometry">
            <mxPoint x="930" y="260" as="targetPoint" />
            <Array as="points">
              <mxPoint x="930" y="260" />
              <mxPoint x="930" y="260" />
            </Array>
          </mxGeometry>
        </mxCell>
        <mxCell id="WuAp777bnY0AX49LWSHj-69" value="Logs" style="image;aspect=fixed;perimeter=ellipsePerimeter;html=1;align=center;shadow=0;dashed=0;fontColor=#4277BB;labelBackgroundColor=default;fontSize=12;spacingTop=3;image=img/lib/ibm/blockchain/message_bus.svg;" vertex="1" parent="21">
          <mxGeometry x="910" y="71" width="60" height="60" as="geometry" />
        </mxCell>
        <mxCell id="WuAp777bnY0AX49LWSHj-75" style="edgeStyle=orthogonalEdgeStyle;rounded=0;orthogonalLoop=1;jettySize=auto;html=1;entryX=1;entryY=0.75;entryDx=0;entryDy=0;strokeWidth=2;endSize=4;fillColor=#dae8fc;strokeColor=#A9C4EB;startSize=4;" edge="1" parent="21" source="WuAp777bnY0AX49LWSHj-70" target="16">
          <mxGeometry relative="1" as="geometry">
            <Array as="points">
              <mxPoint x="1010" y="300" />
              <mxPoint x="960" y="300" />
              <mxPoint x="960" y="303" />
            </Array>
          </mxGeometry>
        </mxCell>
        <mxCell id="WuAp777bnY0AX49LWSHj-70" value="Monitor" style="image;aspect=fixed;perimeter=ellipsePerimeter;html=1;align=center;shadow=0;dashed=0;fontColor=#4277BB;labelBackgroundColor=default;fontSize=12;spacingTop=3;image=img/lib/ibm/infrastructure/monitoring_logging.svg;" vertex="1" parent="21">
          <mxGeometry x="979" y="71" width="60" height="60" as="geometry" />
        </mxCell>
      </root>
    </mxGraphModel>
  </diagram>
</mxfile>
